<?xml version="1.0" encoding="UTF-8"?>
<svg id="Camada_1" xmlns="http://www.w3.org/2000/svg" version="1.1" viewBox="0 0 800 800">
  <!-- Generator: Adobe Illustrator 29.5.1, SVG Export Plug-In . SVG Version: 2.1.0 Build 141)  -->
  <defs>
    <style>
      .st0 {
        fill: #d97566;
      }
    </style>
  </defs>
  <path class="st0" d="M400,46.67c-196.37,0-355.56,159.19-355.56,355.56s159.19,355.56,355.56,355.56,355.56-159.19,355.56-355.56S596.37,46.67,400,46.67h0ZM397.78,164c24.55,0,44.44,19.9,44.44,44.44s-19.9,44.44-44.44,44.44-44.44-19.9-44.44-44.44,19.9-44.44,44.44-44.44ZM477.78,636.22h-155.56c-17.18.01-31.12-13.91-31.13-31.09-.01-17.18,13.91-31.12,31.09-31.13h46.71v-204.44h-35.56c-17.18,0-31.11-13.93-31.11-31.11s13.93-31.11,31.11-31.11h97.78v266.67h46.67c17.18-.01,31.12,13.91,31.13,31.09s-13.91,31.12-31.09,31.13h-.04Z"/>
</svg>