<?xml version="1.0" encoding="UTF-8"?>
<svg id="Camada_1" xmlns="http://www.w3.org/2000/svg" version="1.1" viewBox="0 0 800 800">
  <!-- Generator: Adobe Illustrator 29.5.1, SVG Export Plug-In . SVG Version: 2.1.0 Build 141)  -->
  <defs>
    <style>
      .st0 {
        fill: #d97566;
      }

      .st0, .st1, .st2, .st3 {
        fill-rule: evenodd;
      }

      .st1 {
        fill: #476f71;
      }

      .st2 {
        fill: #f9ce8a;
      }

      .st4 {
        fill: none;
        stroke: #f9ce8a;
        stroke-linecap: round;
        stroke-linejoin: round;
        stroke-width: 20px;
      }

      .st3 {
        fill: #aebaa6;
      }
    </style>
  </defs>
  <polygon class="st1" points="364.05 413.34 154.7 415.92 47.79 235.91 150.23 53.32 359.58 50.74 466.49 230.75 364.05 413.34"/>
  <polygon class="st3" points="357.82 753.01 148.47 755.59 41.56 575.58 144 392.99 353.35 390.41 460.26 570.42 357.82 753.01"/>
  <polygon class="st2" points="653.05 585.79 443.7 588.37 336.79 408.36 439.23 225.77 648.58 223.19 755.49 403.2 653.05 585.79"/>
  <path class="st0" d="M468.4,266.67l-75.42,135.79,6.39,11.5c.44-1.36,1.06-2.69,1.86-3.95l32.32-50.92c2.69-4.23,7.04-6.97,11.85-7.48,4.82-.5,9.6,1.29,13.02,4.89l19.55,20.53,52.39-85.6c2.9-4.73,7.84-7.65,13.2-7.79,5.36-.14,10.43,2.52,13.55,7.1l58.12,85.45,12.77-17.88c3.05-4.27,7.84-6.79,12.93-6.79s9.88,2.52,12.93,6.79l36.9,51.67,4.19-7.54-75.42-135.79h-151.12ZM594.88,404.69l-50.22-73.84-59.83,97.75c-4.83,7.88-14.83,10.17-22.33,5.1-7.51-5.07-9.68-15.57-4.86-23.46l2.44-3.99c-.09-.09-.19-.19-.28-.29l-10.3-10.82-21.39,33.69c-3.71,5.84-10.27,8.49-16.45,7.27l56.72,102.13h151.12l53.55-96.42-32.15-45.02-35.55,49.79c-5.36,7.5-15.49,9.02-22.63,3.39-7.14-5.62-8.59-16.26-3.23-23.76l15.37-21.52ZM556.89,426.21c-3.05-4.27-7.84-6.79-12.93-6.79s-9.88,2.52-12.93,6.79l-48.48,67.89c-5.36,7.5-3.91,18.14,3.23,23.76,7.14,5.62,17.27,4.1,22.63-3.39l35.55-49.79,35.55,49.79c5.36,7.5,15.49,9.02,22.63,3.39,7.14-5.62,8.59-16.26,3.23-23.76l-48.48-67.89Z"/>
  <path class="st2" d="M181.25,100l-76.19,133.33,76.19,133.33h151.79l76.19-133.33-76.19-133.33h-151.79ZM466.96,200l-85.64-149.87c-5.94-10.39-16.98-16.8-28.94-16.8h-190.48c-11.96,0-23.01,6.41-28.94,16.8L37.73,216.8c-5.86,10.25-5.86,22.83,0,33.08l85.79,150.13-85.79,150.13c-5.86,10.25-5.86,22.83,0,33.07l95.24,166.67c5.93,10.39,16.98,16.8,28.94,16.8h190.48c11.96,0,23.01-6.41,28.94-16.8l85.64-149.87h171.13c11.96,0,23.01-6.41,28.94-16.8l95.24-166.67c5.86-10.25,5.86-22.83,0-33.07l-95.24-166.67c-5.94-10.39-16.98-16.8-28.94-16.8h-171.13ZM466.96,533.33l-76.19-133.33,76.19-133.33h151.79l76.19,133.33-76.19,133.33h-151.79ZM409.23,566.67l-76.19-133.33h-151.79l-76.19,133.33,76.19,133.33h151.79l76.19-133.33Z"/>
  <path class="st4" d="M288.62,208.11c-26.65,0-48.9,18.9-54.51,44.2h-4.55c-18.83,0-34.18,15.64-34.18,34.75s15.42,34.75,34.18,34.75h59.06c30.91,0,56-25.44,56-56.85s-25.09-56.85-56-56.85Z"/>
  <line class="st4" x1="174.06" y1="215.21" x2="159.84" y2="215.21"/>
  <line class="st4" x1="283.22" y1="170.02" x2="293.31" y2="159.92"/>
  <line class="st4" x1="238.02" y1="151.25" x2="238.02" y2="137.04"/>
  <line class="st4" x1="192.82" y1="170.02" x2="182.73" y2="159.92"/>
  <path class="st4" d="M219.83,253.81c-14.43-6.82-24.45-21.53-24.45-38.59,0-23.52,19.12-42.64,42.64-42.64,21.39,0,39.09,15.71,42.14,36.24"/>
  <path class="st4" d="M175.86,528.56l27.44-9.94c4.97-1.8,10.83-1.8,15.8,0l12.57,4.55c14.92,5.41,32.49,5.41,47.41,0l12.57-4.55c4.97-1.8,10.83-1.8,15.8,0l27.44,9.94M175.86,557.36l27.44-9.94c4.97-1.8,10.83-1.8,15.8,0l12.57,4.55c14.92,5.41,32.49,5.41,47.41,0l12.57-4.55c4.97-1.8,10.83-1.8,15.8,0l27.44,9.94M175.86,586.17l27.44-9.94c4.97-1.8,10.83-1.8,15.8,0l12.57,4.55c14.92,5.41,32.49,5.41,47.41,0l12.57-4.55c4.97-1.8,10.83-1.8,15.8,0l27.44,9.94M175.86,614.97l27.44-9.94c4.97-1.8,10.83-1.8,15.8,0l12.57,4.55c14.92,5.41,32.49,5.41,47.41,0l12.57-4.55c4.97-1.8,10.83-1.8,15.8,0l27.44,9.94"/>
</svg>