<?xml version="1.0" encoding="UTF-8"?>
<svg id="Camada_1" xmlns="http://www.w3.org/2000/svg" version="1.1" viewBox="0 0 800 800">
  <!-- Generator: Adobe Illustrator 29.5.1, SVG Export Plug-In . SVG Version: 2.1.0 Build 141)  -->
  <defs>
    <style>
      .st0 {
        fill: #33373a;
        fill-rule: evenodd;
      }
    </style>
  </defs>
  <path class="st0" d="M200,0h100v100h200v100h-56.6c-14.87,83.5-54.12,158.56-110.12,217.56,40,19.41,84.59,30.87,131.69,32.29l48.7-149.85h122.65l162.5,500h-105.15l-32.5-100h-172.35l-32.5,100h-105.15l81.91-252.04c-66.77-6.54-129.01-28.52-183.09-62.34-65.25,40.8-142.37,64.38-225,64.38H0v-100h25c50.81,0,98.89-11.66,141.72-32.44-32.53-34.26-59.4-73.95-79.13-117.56h113.5c13.92,21.75,30.36,41.72,48.91,59.52,44.37-42.58,76.68-97.63,91.3-159.52H0v-100h200V0ZM628.67,600l-53.67-165.16-53.67,165.16h107.35Z"/>
</svg>