<?xml version="1.0" encoding="UTF-8"?>
<svg id="Camada_1" xmlns="http://www.w3.org/2000/svg" version="1.1" viewBox="0 0 800 800">
  <!-- Generator: Adobe Illustrator 29.5.1, SVG Export Plug-In . SVG Version: 2.1.0 Build 141)  -->
  <defs>
    <style>
      .st0 {
        fill: none;
        stroke: #33373a;
        stroke-linecap: round;
        stroke-linejoin: round;
        stroke-width: 66.67px;
      }
    </style>
  </defs>
  <path class="st0" d="M566.67,566.67h.33M580,466.67h20c31.06,0,46.59,0,58.85,5.07,16.33,6.77,29.31,19.75,36.08,36.08,5.07,12.25,5.07,27.78,5.07,58.85s0,46.59-5.07,58.85c-6.77,16.33-19.75,29.31-36.08,36.08-12.25,5.07-27.78,5.07-58.85,5.07H200c-31.06,0-46.59,0-58.85-5.07-16.34-6.77-29.31-19.75-36.08-36.08-5.07-12.25-5.07-27.78-5.07-58.85s0-46.59,5.07-58.85c6.77-16.33,19.74-29.31,36.08-36.08,12.25-5.07,27.78-5.07,58.85-5.07h20M400,500V133.33M400,500l-100-100M400,500l100-100"/>
</svg>