<?xml version="1.0" encoding="UTF-8"?>
<svg id="Icons" xmlns="http://www.w3.org/2000/svg" version="1.1" viewBox="0 0 800 800">
  <!-- Generator: Adobe Illustrator 29.5.1, SVG Export Plug-In . SVG Version: 2.1.0 Build 141)  -->
  <defs>
    <style>
      .st0 {
        fill: #aebaa6;
      }

      .st1 {
        fill: #476f71;
      }
    </style>
  </defs>
  <path class="st1" d="M720,320l-57.5,15-62.5-35,62.5-35,57.5,15h7.5c10,0,20-7.5,25-17.5,2.5-12.5-5-27.5-17.5-30l-45-12.5,10-45c2.5-12.5-5-27.5-17.5-30s-27.5,5-30,17.5l-15,57.5-62.5,37.5v-72.5l42.5-42.5c10-10,10-25,0-35s-25-10-35,0l-32.5,32.5-32.5-32.5c-10-10-25-10-35,0s-10,25,0,35l42.5,42.5v72.5l-62.5-35-15-57.5c-2.5-12.5-17.5-22.5-30-17.5-15,0-22.5,15-17.5,27.5l12.5,45-45,12.5c-12.5,2.5-22.5,17.5-17.5,30,2.5,10,12.5,17.5,25,17.5h7.5l57.5-15,60,35-62.5,35-57.5-15c-12.5-2.5-27.5,5-30,17.5-2.5,12.5,5,27.5,17.5,30l45,12.5-12.5,45c-2.5,12.5,5,27.5,17.5,30h7.5c10,0,20-7.5,25-17.5l15-57.5,62.5-35v72.5l-42.5,42.5c-10,10-10,25,0,35s25,10,35,0l32.5-32.5,32.5,32.5c5,5,12.5,7.5,17.5,7.5s12.5-2.5,17.5-7.5c10-10,10-25,0-35l-45-45v-72.5l62.5,35,15,57.5c2.5,10,12.5,17.5,25,17.5h7.5c12.5-2.5,22.5-17.5,17.5-30l-12.5-45,45-12.5c12.5-2.5,22.5-17.5,17.5-30-5-10-20-17.5-32.5-15Z"/>
  <ellipse class="st1" cx="225" cy="541.44" rx="111.5" ry="141.45"/>
  <path class="st0" d="M325,432.5V150c0-55-45-100-100-100s-100,45-100,100v282.5c-47.5,32.5-75,87.5-75,142.5,0,97.5,77.5,175,175,175s175-77.5,175-175c0-57.5-27.5-110-75-142.5ZM225,675c-55,0-100-45-100-100,0-47.5,32.5-85,75-97.5v-52.5c0-15,10-25,25-25s25,10,25,25v52.5c42.5,10,75,50,75,97.5,0,55-45,100-100,100Z"/>
</svg>