<?xml version="1.0" encoding="UTF-8"?>
<svg id="Camada_1" xmlns="http://www.w3.org/2000/svg" version="1.1" viewBox="0 0 800 800">
  <!-- Generator: Adobe Illustrator 29.5.1, SVG Export Plug-In . SVG Version: 2.1.0 Build 141)  -->
  <defs>
    <style>
      .st0 {
        fill: #f9ce8a;
        fill-rule: evenodd;
      }

      .st1 {
        fill: none;
        stroke: #f9ce8a;
        stroke-linecap: round;
        stroke-linejoin: round;
        stroke-width: 20px;
      }
    </style>
  </defs>
  <path class="st0" d="M650.44,223.19l-213.33,2.58-104.39,182.59,108.94,180.01,213.33-2.58,104.39-182.59-108.94-180.01ZM620.81,538.23h-154l-57.8-102.13c6.3,1.22,12.98-1.43,16.76-7.27l21.8-33.69,10.5,10.82c.09.1.19.2.29.29l-2.49,3.99c-4.91,7.89-2.7,18.39,4.95,23.46,7.64,5.07,17.83,2.78,22.75-5.1l60.97-97.75,51.18,73.84h-.02l-15.66,21.52c-5.46,7.5-3.98,18.14,3.29,23.76,7.28,5.63,17.6,4.11,23.06-3.39l36.23-49.79,32.76,45.02-54.57,96.42ZM655.83,358.31c-3.11-4.27-7.99-6.79-13.18-6.79s-10.07,2.52-13.18,6.79l-13.01,17.88-59.23-85.45c-3.18-4.58-8.35-7.24-13.81-7.1s-10.5,3.06-13.45,7.79l-53.39,85.6-19.92-20.53c-3.49-3.6-8.36-5.39-13.27-4.89-4.9.51-9.33,3.25-12.08,7.48l-32.93,50.92c-.82,1.26-1.45,2.59-1.9,3.95l-6.51-11.5,76.86-135.79v-.02h154.01l76.86,135.79-4.27,7.54-37.6-51.67Z"/>
  <path class="st0" d="M602.14,517.86c-7.14,5.63-17.27,4.11-22.63-3.39l-35.55-49.79-35.55,49.79c-5.36,7.49-15.49,9.01-22.63,3.39-7.14-5.62-8.59-16.26-3.23-23.76l48.48-67.89c3.05-4.27,7.84-6.79,12.93-6.79s9.88,2.52,12.93,6.79l48.48,67.89c5.36,7.5,3.91,18.14-3.23,23.76Z"/>
  <path class="st0" d="M181.25,100l-76.19,133.33,76.19,133.33h151.79l76.19-133.33-76.19-133.33h-151.79,0ZM466.96,200l-85.64-149.87c-5.94-10.39-16.98-16.8-28.94-16.8h-190.48c-11.96,0-23.01,6.41-28.94,16.8L37.73,216.8c-5.86,10.25-5.86,22.83,0,33.08l85.79,150.13-85.79,150.13c-5.86,10.25-5.86,22.83,0,33.07l95.24,166.67c5.93,10.39,16.98,16.8,28.94,16.8h190.48c11.96,0,23.01-6.41,28.94-16.8l85.64-149.87h171.13c11.96,0,23.01-6.41,28.94-16.8l95.24-166.67c5.86-10.25,5.86-22.83,0-33.07l-95.24-166.67c-5.94-10.39-16.98-16.8-28.94-16.8h-171.14ZM466.96,533.33l-76.19-133.33,76.19-133.33h151.79l76.19,133.33-76.19,133.33h-151.79ZM409.23,566.67l-76.19-133.33h-151.79l-76.19,133.33,76.19,133.33h151.79l76.19-133.33Z"/>
  <path class="st1" d="M288.62,208.11c-26.65,0-48.9,18.9-54.51,44.2h-4.55c-18.83,0-34.18,15.64-34.18,34.75s15.42,34.75,34.18,34.75h59.06c30.91,0,56-25.44,56-56.85s-25.09-56.85-56-56.85h0Z"/>
  <line class="st1" x1="174.06" y1="215.21" x2="159.84" y2="215.21"/>
  <line class="st1" x1="283.22" y1="170.02" x2="293.31" y2="159.92"/>
  <line class="st1" x1="238.02" y1="151.25" x2="238.02" y2="137.04"/>
  <line class="st1" x1="192.82" y1="170.02" x2="182.73" y2="159.92"/>
  <path class="st1" d="M219.83,253.81c-14.43-6.82-24.45-21.53-24.45-38.59,0-23.52,19.12-42.64,42.64-42.64,21.39,0,39.09,15.71,42.14,36.24"/>
  <path class="st1" d="M175.86,528.56l27.44-9.94c4.97-1.8,10.83-1.8,15.8,0l12.57,4.55c14.92,5.41,32.49,5.41,47.41,0l12.57-4.55c4.97-1.8,10.83-1.8,15.8,0l27.44,9.94M175.86,557.36l27.44-9.94c4.97-1.8,10.83-1.8,15.8,0l12.57,4.55c14.92,5.41,32.49,5.41,47.41,0l12.57-4.55c4.97-1.8,10.83-1.8,15.8,0l27.44,9.94M175.86,586.17l27.44-9.94c4.97-1.8,10.83-1.8,15.8,0l12.57,4.55c14.92,5.41,32.49,5.41,47.41,0l12.57-4.55c4.97-1.8,10.83-1.8,15.8,0l27.44,9.94M175.86,614.97l27.44-9.94c4.97-1.8,10.83-1.8,15.8,0l12.57,4.55c14.92,5.41,32.49,5.41,47.41,0l12.57-4.55c4.97-1.8,10.83-1.8,15.8,0l27.44,9.94"/>
</svg>