<?xml version="1.0" encoding="UTF-8"?>
<svg id="Icons" xmlns="http://www.w3.org/2000/svg" version="1.1" viewBox="0 0 32 32">
  <!-- Generator: Adobe Illustrator 30.0.0, SVG Export Plug-In . SVG Version: 2.1.1 Build 123)  -->
  <defs>
    <style>
      .st0 {
        fill: #f9ce8a;
      }
    </style>
  </defs>
  <path class="st0" d="M16,2C8.8,2,3,7.8,3,14.8v5.7c0,1.9,1.5,3.4,3.4,3.4.6,0,1.6.3,1.6,1.1v3c0,.4.3.8.7,1,2.4.8,4.9,1.2,7.3,1.2s4.9-.4,7.3-1.2c.4-.1.7-.5.7-1v-3c0-.8,1-1.1,1.6-1.1,1.9,0,3.4-1.5,3.4-3.4v-5.7c0-7-5.8-12.8-13-12.8ZM12.3,21.7l-1.2.2c-.2,0-.4.1-.7.1-.8,0-1.5-.3-2.2-.8-.7-.6-1.2-1.6-1.2-2.6v-.2c0-1.9,1.5-3.4,3.4-3.4h1.2c1.1,0,2,.5,2.7,1.3.6.8.9,1.9.6,2.9-.3,1.3-1.4,2.2-2.6,2.5ZM17.4,23.9c-.1.1-.2.1-.4.1-.4,0-.7-.2-.9-.6l-.1-.2-.1.2c-.2.5-.8.7-1.3.4-.5-.2-.7-.8-.4-1.3l1-2c.3-.7,1.4-.7,1.8,0l1,2c.1.5-.1,1.1-.6,1.4ZM25,18.6c0,1-.5,2-1.2,2.6-.6.5-1.4.8-2.2.8-.2,0-.4,0-.7-.1l-1.2-.2c-1.3-.3-2.3-1.2-2.6-2.5-.3-1,0-2.1.6-2.9.6-.8,1.6-1.3,2.7-1.3h1.2c1.9,0,3.4,1.5,3.4,3.4,0,0,0,.2,0,.2Z"/>
</svg>