<?xml version="1.0" encoding="UTF-8"?>
<svg id="Layer_1" xmlns="http://www.w3.org/2000/svg" version="1.1" viewBox="0 0 800 800">
  <!-- Generator: Adobe Illustrator 29.5.1, SVG Export Plug-In . SVG Version: 2.1.0 Build 141)  -->
  <defs>
    <style>
      .st0 {
        fill: #d97566;
      }
    </style>
  </defs>
  <path class="st0" d="M195.23,86.03c-7.1-12.23-2.9-27.93,9.33-35.03,12.23-7.1,27.93-2.93,35.03,9.33l32.93,57c7.1,12.23,2.9,27.93-9.33,35.03-12.23,7.1-27.93,2.93-35.03-9.33l-32.93-57h0ZM400,170.57c63.37,0,120.7,25.67,162.23,67.2,41.5,41.53,67.2,98.9,67.2,162.23s-25.67,120.7-67.2,162.23-98.87,67.2-162.23,67.2-120.7-25.67-162.23-67.2c-41.5-41.53-67.2-98.87-67.2-162.23s25.67-120.7,67.2-162.23c41.53-41.5,98.9-67.2,162.23-67.2h0ZM527.57,272.43c-32.63-32.63-77.73-52.83-127.57-52.83s-94.93,20.2-127.57,52.83c-32.63,32.63-52.83,77.73-52.83,127.57s20.2,94.93,52.83,127.57c32.63,32.63,77.73,52.83,127.57,52.83s94.93-20.2,127.57-52.83,52.83-77.73,52.83-127.57c0-49.83-20.2-94.93-52.83-127.57h0ZM379.6,25.7C379.6,11.5,391.1,0,405.3,0s25.7,11.5,25.7,25.7v65.83c0,14.2-11.5,25.7-25.7,25.7s-25.7-11.5-25.7-25.7V25.7h0ZM569.57,65.73c7.03-12.23,22.67-16.47,34.93-9.43,12.23,7.03,16.47,22.67,9.43,34.93l-32.93,57c-7.03,12.23-22.67,16.47-34.93,9.43-12.23-7.03-16.47-22.67-9.43-34.93l32.93-57h0ZM713.97,195.23c12.23-7.1,27.93-2.9,35.03,9.33,7.1,12.23,2.93,27.93-9.33,35.03l-57,32.93c-12.23,7.1-27.93,2.9-35.03-9.33-7.1-12.23-2.93-27.93,9.33-35.03l57-32.93h0ZM774.3,379.6c14.2,0,25.7,11.5,25.7,25.7s-11.5,25.7-25.7,25.7h-65.83c-14.2,0-25.7-11.5-25.7-25.7s11.5-25.7,25.7-25.7h65.83ZM734.27,569.57c12.23,7.03,16.47,22.67,9.43,34.93-7.03,12.23-22.67,16.47-34.93,9.43l-57-32.93c-12.23-7.03-16.47-22.67-9.43-34.93,7.03-12.23,22.67-16.47,34.93-9.43l57,32.93h0ZM604.77,713.97c7.1,12.23,2.9,27.93-9.33,35.03-12.23,7.1-27.93,2.93-35.03-9.33l-32.93-57c-7.1-12.23-2.9-27.93,9.33-35.03,12.23-7.1,27.93-2.93,35.03,9.33l32.93,57h0ZM420.4,774.3c0,14.2-11.5,25.7-25.7,25.7s-25.7-11.5-25.7-25.7v-65.83c0-14.2,11.5-25.7,25.7-25.7s25.7,11.5,25.7,25.7v65.83h0ZM230.43,734.27c-7.03,12.23-22.67,16.47-34.93,9.43-12.23-7.03-16.47-22.67-9.43-34.93l32.93-57c7.03-12.23,22.67-16.47,34.93-9.43,12.23,7.03,16.47,22.67,9.43,34.93l-32.93,57h0ZM86.03,604.77c-12.23,7.1-27.93,2.9-35.03-9.33-7.1-12.23-2.93-27.93,9.33-35.03l57-32.93c12.23-7.1,27.93-2.9,35.03,9.33s2.93,27.93-9.33,35.03l-57,32.93h0ZM25.7,420.4c-14.2,0-25.7-11.5-25.7-25.7s11.5-25.7,25.7-25.7h65.83c14.2,0,25.7,11.5,25.7,25.7s-11.5,25.7-25.7,25.7H25.7ZM65.73,230.43c-12.23-7.03-16.47-22.67-9.43-34.93,7.03-12.23,22.67-16.47,34.93-9.43l57,32.93c12.23,7.03,16.47,22.67,9.43,34.93-7.03,12.23-22.67,16.47-34.93,9.43l-57-32.93h0Z"/>
</svg>