<?xml version="1.0" encoding="UTF-8"?>
<svg id="Camada_1" xmlns="http://www.w3.org/2000/svg" version="1.1" viewBox="0 0 800 800">
  <!-- Generator: Adobe Illustrator 29.5.1, SVG Export Plug-In . SVG Version: 2.1.0 Build 141)  -->
  <defs>
    <style>
      .st0 {
        fill: #aebaa6;
      }
    </style>
  </defs>
  <path class="st0" d="M100,399.5c-3.8,180.15,138.83,329.43,318.97,333.83,116.22-1.3,222.46-65.98,276.97-168.63,8.83-16.16,2.88-36.41-13.27-45.23-5.59-3.05-11.94-4.44-18.29-4l-3.67.27c-4.37.33-8.77.67-13.33.67-143.32-4.39-256.11-123.83-252.3-267.17,0-46.57,11.64-92.41,33.87-133.33,8.82-16.16,2.88-36.41-13.28-45.23-5.57-3.04-11.89-4.43-18.22-4C226.56,82.87,96.97,227.89,100,399.5ZM344.77,144.43c-10.77,33.89-16.26,69.24-16.27,104.8-2.72,163.45,114.76,304.21,276.07,330.77-46.38,54.43-114.1,86.05-185.6,86.67-143.32-4.39-256.11-123.83-252.3-267.17-1.6-114.46,70.1-217.14,178.1-255.07h0Z"/>
</svg>