<?xml version="1.0" encoding="UTF-8"?>
<svg id="Icons" xmlns="http://www.w3.org/2000/svg" version="1.1" viewBox="0 0 800 800">
  <!-- Generator: Adobe Illustrator 29.5.1, SVG Export Plug-In . SVG Version: 2.1.0 Build 141)  -->
  <defs>
    <style>
      .st0 {
        fill: #aebaa6;
      }

      .st1 {
        fill: #d97566;
      }
    </style>
  </defs>
  <path class="st1" d="M500,200c-70,0-125,55-125,125s55,125,125,125,125-55,125-125-55-125-125-125Z"/>
  <path class="st1" d="M500,175c15,0,25-10,25-25v-50c0-15-10-25-25-25s-25,10-25,25v50c0,15,10,25,25,25Z"/>
  <path class="st1" d="M500,475c-15,0-25,10-25,25v50c0,15,10,25,25,25s25-10,25-25v-50c0-15-10-25-25-25Z"/>
  <path class="st1" d="M642.5,430c-10-10-25-10-35,0s-10,25,0,35l35,35c5,5,12.5,7.5,17.5,7.5s12.5-2.5,17.5-7.5c10-10,10-25,0-35l-35-35Z"/>
  <path class="st1" d="M725,300h-50c-15,0-25,10-25,25s10,25,25,25h50c15,0,25-10,25-25s-10-25-25-25Z"/>
  <path class="st1" d="M625,227.5c7.5,0,12.5-2.5,17.5-7.5l35-35c10-10,10-25,0-35s-25-10-35,0l-35,35c-10,10-10,25,0,35,2.5,5,10,7.5,17.5,7.5Z"/>
  <ellipse class="st1" cx="226.52" cy="586.65" rx="112.52" ry="121.65"/>
  <ellipse class="st1" cx="232.5" cy="330.89" rx="62.5" ry="237"/>
  <path class="st0" d="M325,432.5V150c0-55-45-100-100-100s-100,45-100,100v282.5c-47.5,32.5-75,87.5-75,142.5,0,97.5,77.5,175,175,175s175-77.5,175-175c0-57.5-27.5-110-75-142.5ZM225,675c-55,0-100-45-100-100,0-47.5,32.5-85,75-97.5V150c0-15,10-25,25-25s25,10,25,25v327.5c42.5,10,75,50,75,97.5,0,55-45,100-100,100Z"/>
</svg>