<?xml version="1.0" encoding="UTF-8"?>
<svg id="Camada_1" xmlns="http://www.w3.org/2000/svg" version="1.1" viewBox="0 0 800 800">
  <!-- Generator: Adobe Illustrator 30.0.0, SVG Export Plug-In . SVG Version: 2.1.1 Build 123)  -->
  <defs>
    <style>
      .st0 {
        fill: #aebaa6;
      }
    </style>
  </defs>
  <path class="st0" d="M235,446.87l117.8,117.87-47.1,47.13,47.17,47.17-47.13,47.13-82.5-82.5-94.3,94.3-47.13-47.13,94.3-94.33-82.5-82.47,47.13-47.13,47.13,47.1,47.1-47.13h.03ZM100,100l118.2.1,393.9,393.93,47.17-47.13,47.13,47.13-82.47,82.5,94.27,94.3-47.13,47.13-94.3-94.3-82.5,82.5-47.13-47.13,47.13-47.17L100.1,217.7l-.1-117.7ZM581.9,100l118.1.1.07,117.43-135.1,135.07-117.87-117.83,134.8-134.77h0Z"/>
</svg>