<?xml version="1.0" encoding="UTF-8"?>
<svg id="Camada_1" xmlns="http://www.w3.org/2000/svg" version="1.1" viewBox="0 0 800 800">
  <!-- Generator: Adobe Illustrator 29.5.1, SVG Export Plug-In . SVG Version: 2.1.0 Build 141)  -->
  <defs>
    <style>
      .st0 {
        fill: #aebaa6;
      }
    </style>
  </defs>
  <path class="st0" d="M776.47,21.97c-148.66,5.46-269.21,37.62-361.38,87.21l-46.05,77-7.76-43.9c-16.46,11.57-31.74,23.78-45.8,36.57l-22.95,70.41-7.86-39.3c-63.52,71.1-94.39,156.04-92.09,243.6,73.86-146.35,206.88-269.89,331.2-345.55l15.18,24.95c-117.67,71.62-244.35,189.38-315.92,325.39h18.99c30.91-18.78,61.19-41.97,91.26-67.88l-47.31,2.49,84.72-36.08c73.24-68.18,146.04-148.4,223.93-216.06l-38.23-8.11,88.28-32.86c41.96-32.01,85.62-59.13,131.79-77.88h0ZM93.02,487.55v47.51h210.11v-47.51H93.02ZM124.85,564.26l-51.02,44.82-34.81,132.76,22.7,24.81h276.91l22.75-24.8-34.81-132.76-48.29-44.82H124.85Z"/>
</svg>