<?xml version="1.0" encoding="UTF-8"?>
<svg id="Layer_1" xmlns="http://www.w3.org/2000/svg" version="1.1" viewBox="0 0 800 800">
  <!-- Generator: Adobe Illustrator 29.5.1, SVG Export Plug-In . SVG Version: 2.1.0 Build 141)  -->
  <defs>
    <style>
      .st0 {
        fill: #aebaa6;
      }
    </style>
  </defs>
  <path class="st0" d="M312.25,182.41L241.6,29.35l-170.7,124.17c-3.11,2.24-5.34,5.51-6.31,9.19L1.08,400.85h170.73l140.43-218.43Z"/>
  <polygon class="st0" points="338.91 202.69 201.41 416.58 369.8 630.91 614.53 523.84 599.26 263.92 338.91 202.69"/>
  <path class="st0" d="M609.99,232.12l102.95-102.95L507.03,2.46c-2.97-1.84-6.31-2.61-9.95-2.44l-224.78,16.07,70.72,153.23,266.97,62.8Z"/>
  <path class="st0" d="M172.82,434.25H2.15l79.54,222.74c1.27,3.57,3.74,6.61,6.95,8.62l206.78,127.24,50.37-138.43-172.97-220.17Z"/>
  <path class="st0" d="M377.89,663.81l-49.54,136.19,238.91-31.87c2.77-.37,5.38-1.4,7.62-3.04l175.27-127.47-120.16-84.11-252.11,110.3Z"/>
  <path class="st0" d="M798.06,345.46l-63.54-190.64-102.22,102.22,15.8,268.37,118.72,83.11,31.97-255.71c.3-2.47.07-4.98-.74-7.35Z"/>
</svg>