<?xml version="1.0" encoding="UTF-8"?>
<svg id="Camada_1" xmlns="http://www.w3.org/2000/svg" version="1.1" viewBox="0 0 800 800">
  <!-- Generator: Adobe Illustrator 29.5.1, SVG Export Plug-In . SVG Version: 2.1.0 Build 141)  -->
  <defs>
    <style>
      .st0 {
        fill: #aebaa6;
      }
    </style>
  </defs>
  <path class="st0" d="M226.48,737.86c-6.69,26.81,9.59,53.95,36.37,60.64,4.08,1.03,8.16,1.48,12.19,1.48,22.39,0,42.77-15.16,48.47-37.86l39.44-157.77-82.47-82.47-54,215.97h0ZM249.75,431.42l64.31-248.61c3.42-13.16-4.91-26.48-18.62-29.78-68.56-16.44-138.05,23.55-155.19,89.33l-39.48,153.33c-3.42,13.16,4.91,26.48,18.62,29.78l99.31,23.83c13.73,3.28,27.63-4.72,31.05-17.88h0ZM675,250h-25c-13.81,0-25,11.19-25,25v25h-54.3l-73.09-73.09c-17.33-17.36-40.41-26.91-64.94-26.91-42.22,0-78.86,28.59-89.11,69.56l-42.06,168.31c-4.26,17.04.74,35.06,13.16,47.48l135.34,135.34v129.3c0,27.61,22.39,50,50,50s50-22.39,50-50v-129.3c0-26.7-10.41-51.81-29.3-70.7l-73.16-73.16c.23-.78.77-1.39.97-2.2l31.08-124.33,35.05,35.05c9.38,9.38,22.09,14.66,35.34,14.66h75v375c0,13.81,11.19,25,25,25h25c13.81,0,25-11.19,25-25v-500.02c.02-13.81-11.17-25-24.98-25h0ZM475,150c41.42,0,75-33.58,75-75S516.42,0,475,0s-75,33.58-75,75,33.58,75,75,75Z"/>
</svg>