<?xml version="1.0" encoding="UTF-8"?>
<svg id="Layer_1" xmlns="http://www.w3.org/2000/svg" version="1.1" viewBox="0 0 800 800">
  <!-- Generator: Adobe Illustrator 29.5.1, SVG Export Plug-In . SVG Version: 2.1.0 Build 141)  -->
  <defs>
    <style>
      .st0 {
        fill: #f9ce8a;
      }
    </style>
  </defs>
  <path class="st0" d="M666.67,0C593.33,0,533.33,60,533.33,133.33v166.67c0,20,13.33,33.33,33.33,33.33h200c20,0,33.33-13.33,33.33-33.33v-166.67C800,60,740,0,666.67,0ZM733.33,266.67h-133.33v-133.33c0-36.67,30-66.67,66.67-66.67s66.67,30,66.67,66.67v133.33h0Z"/>
  <path class="st0" d="M566.67,600c-20,0-33.33,13.33-33.33,33.33v33.33c0,20,13.33,33.33,33.33,33.33s33.33-13.33,33.33-33.33v-33.33c0-20-13.33-33.33-33.33-33.33Z"/>
  <path class="st0" d="M566.67,633.33c-20,0-33.33,13.33-33.33,33.33,0,36.67-30,66.67-66.67,66.67s-66.67-30-66.67-66.67v-33.33c0-20-13.33-33.33-33.33-33.33s-33.33,13.33-33.33,33.33v33.33c0,73.33,60,133.33,133.33,133.33s133.33-60,133.33-133.33c0-20-13.33-33.33-33.33-33.33Z"/>
  <path class="st0" d="M666.67,0H166.67C110,0,66.67,43.33,66.67,100v533.33c0,20,13.33,33.33,33.33,33.33s33.33-13.33,33.33-33.33V100c0-20,13.33-33.33,33.33-33.33h383.33c-10,20-16.67,43.33-16.67,66.67v500c0,20,13.33,33.33,33.33,33.33s33.33-13.33,33.33-33.33V133.33c0-36.67,30-66.67,66.67-66.67C710,66.67,710,0,666.67,0Z"/>
  <path class="st0" d="M466.67,733.33c-36.67,0-66.67-30-66.67-66.67v-33.33c0-20-13.33-33.33-33.33-33.33H33.33c-20,0-33.33,13.33-33.33,33.33v33.33c0,73.33,60,133.33,133.33,133.33h333.33c43.33,0,43.33-66.67,0-66.67ZM133.33,733.33c-36.67,0-66.67-30-66.67-66.67h266.67c0,23.33,6.67,46.67,16.67,66.67h-216.67Z"/>
  <path class="st0" d="M300,166.67h-66.67c-20,0-33.33,13.33-33.33,33.33s13.33,33.33,33.33,33.33h66.67c20,0,33.33-13.33,33.33-33.33s-13.33-33.33-33.33-33.33Z"/>
  <path class="st0" d="M433.33,300h-66.67c-20,0-33.33,13.33-33.33,33.33s13.33,33.33,33.33,33.33h66.67c20,0,33.33-13.33,33.33-33.33,0-20-13.33-33.33-33.33-33.33Z"/>
  <path class="st0" d="M433.33,166.67h-33.33c-20,0-33.33,13.33-33.33,33.33s13.33,33.33,33.33,33.33h33.33c20,0,33.33-13.33,33.33-33.33s-13.33-33.33-33.33-33.33Z"/>
  <path class="st0" d="M300,433.33h-66.67c-20,0-33.33,13.33-33.33,33.33s13.33,33.33,33.33,33.33h66.67c20,0,33.33-13.33,33.33-33.33,0-20-13.33-33.33-33.33-33.33Z"/>
  <path class="st0" d="M433.33,433.33h-33.33c-20,0-33.33,13.33-33.33,33.33s13.33,33.33,33.33,33.33h33.33c20,0,33.33-13.33,33.33-33.33,0-20-13.33-33.33-33.33-33.33Z"/>
  <path class="st0" d="M233.33,300c-20,0-33.33,13.33-33.33,33.33s13.33,33.33,33.33,33.33,33.33-13.33,33.33-33.33c0-20-13.33-33.33-33.33-33.33Z"/>
</svg>