<?xml version="1.0" encoding="UTF-8"?>
<svg id="Camada_1" xmlns="http://www.w3.org/2000/svg" version="1.1" viewBox="0 0 800 800">
  <!-- Generator: Adobe Illustrator 29.5.1, SVG Export Plug-In . SVG Version: 2.1.0 Build 141)  -->
  <defs>
    <style>
      .st0 {
        fill: #aebaa6;
      }
    </style>
  </defs>
  <path class="st0" d="M183.33,566.67s233.33-333.33,433.33-333.33c16.67,16.67,16.67,33.33,0,50-16.67,16.67-37.5-4.17-54.17,12.5-16.67,16.67,25.71,9.05,37.5,20.83,16.67,16.67-58.33,37.5-91.67,20.83,0,0-8.33,4.17,25,37.5-33.33,8.33-87.5,12.5-87.5,12.5,0,0-12.5,29.17,54.17,29.17,0,16.67-70.83,50-154.17,37.5,0,0-79.17,45.83-112.5,95.83l-50,16.67Z"/>
</svg>