<?xml version="1.0" encoding="UTF-8"?>
<svg id="Capa_1" xmlns="http://www.w3.org/2000/svg" version="1.1" viewBox="0 0 800 800">
  <!-- Generator: Adobe Illustrator 29.5.1, SVG Export Plug-In . SVG Version: 2.1.0 Build 141)  -->
  <defs>
    <style>
      .st0 {
        fill: #aebaa6;
      }
    </style>
  </defs>
  <path class="st0" d="M435.51,181.89l65.95-100.46c8.81-13.47,5.07-31.52-8.4-40.33s-31.52-5.07-40.33,8.4l-52.06,79.42-.67-1.08-.83,1.25-52.22-79.58c-8.82-13.47-26.86-17.21-40.33-8.4-13.47,8.82-17.21,26.86-8.4,40.33l66.11,100.71L38.34,678.85h148.27c8.07,0,16.13-1.33,23.7-4.07,119.42-43.24,165.24-177.13,181.54-247.98,1.99-8.65,14.22-8.65,16.22,0,16.22,70.77,62.12,204.66,181.54,247.98,7.57,2.74,15.63,4.07,23.7,4.07h148.27L435.51,181.89Z"/>
  <path class="st0" d="M778.21,705.46H21.79c-12.06,0-21.79,9.31-21.79,20.79v16.63c0,11.48,9.73,20.79,21.79,20.79h756.42c12.06,0,21.79-9.31,21.79-20.79v-16.63c0-11.48-9.73-20.79-21.79-20.79h0Z"/>
</svg>