<?xml version="1.0" encoding="UTF-8"?>
<svg id="Camada_1" xmlns="http://www.w3.org/2000/svg" version="1.1" viewBox="0 0 800 800">
  <!-- Generator: Adobe Illustrator 29.5.1, SVG Export Plug-In . SVG Version: 2.1.0 Build 141)  -->
  <defs>
    <style>
      .st0 {
        fill: #aebaa6;
      }
    </style>
  </defs>
  <path class="st0" d="M400,33.33c18.41,0,33.33,14.92,33.33,33.33v66.67c0,18.41-14.92,33.33-33.33,33.33s-33.33-14.92-33.33-33.33v-66.67c0-18.41,14.92-33.33,33.33-33.33ZM0,433.33c0-18.41,14.92-33.33,33.33-33.33h66.67c18.41,0,33.33,14.92,33.33,33.33s-14.92,33.33-33.33,33.33H33.33c-18.41,0-33.33-14.92-33.33-33.33ZM666.67,433.33c0-18.41,14.92-33.33,33.33-33.33h66.67c18.41,0,33.33,14.92,33.33,33.33s-14.92,33.33-33.33,33.33h-66.67c-18.41,0-33.33-14.92-33.33-33.33ZM682.83,150.5c13.01,13.02,13.01,34.12,0,47.13l-47.13,47.13c-13.24,12.79-34.34,12.42-47.13-.82-12.48-12.92-12.48-33.4,0-46.31l47.13-47.13c13.02-13.01,34.12-13.01,47.13,0ZM117.17,150.5c13.02-13.01,34.12-13.01,47.13,0l47.13,47.13c13.43,12.59,14.11,33.69,1.51,47.12-12.59,13.43-33.69,14.11-47.12,1.51-.51-.48-1.01-.98-1.5-1.5l-47.17-47.1c-13.01-13.02-13.01-34.12,0-47.13v-.03ZM233.33,700c0-18.41,14.92-33.33,33.33-33.33h266.67c18.41,0,33.33,14.92,33.33,33.33s-14.92,33.33-33.33,33.33h-266.67c-18.41,0-33.33-14.92-33.33-33.33ZM666.67,566.67h-75.23c27.34-39.08,41.97-85.64,41.9-133.33,0-128.73-104.6-233.33-233.33-233.33s-233.33,104.6-233.33,233.33c0,49.43,15.3,95.5,41.57,133.33h-74.9c-18.41,0-33.33,14.92-33.33,33.33s14.92,33.33,33.33,33.33h533.33c18.41,0,33.33-14.92,33.33-33.33s-14.92-33.33-33.33-33.33Z"/>
</svg>