<?xml version="1.0" encoding="UTF-8"?>
<svg id="Icons" xmlns="http://www.w3.org/2000/svg" version="1.1" viewBox="0 0 800 800">
  <!-- Generator: Adobe Illustrator 29.5.1, SVG Export Plug-In . SVG Version: 2.1.0 Build 141)  -->
  <defs>
    <style>
      .st0 {
        fill: #aebaa6;
      }
    </style>
  </defs>
  <path class="st0" d="M142.5,582.5c-10-10-25-10-35,0-12.5,12.5-57.5,57.5-57.5,92.5,0,42.5,32.5,75,75,75s75-32.5,75-75c0-35-45-80-57.5-92.5Z"/>
  <path class="st0" d="M720,382.5l-75-85c-37.5,50-80,97.5-117.5,132.5l-2.5,2.5c-5,37.5-35,65-75,65-42.5,0-75-32.5-75-75s32.5-75,75-75c10,0,22.5,2.5,30,7.5-5,5-10,10-15,15-10,10-10,25,0,35,5,5,10,7.5,17.5,7.5s12.5-2.5,17.5-7.5c100-100,252.5-287.5,190-350-42.5-42.5-137.5,12.5-212.5,72.5-35-12.5-75-5-102.5,22.5l-100,100c-52.5,52.5-112.5,95-182.5,125-25,10-42.5,32.5-47.5,60s2.5,55,22.5,72.5c15,15,35,25,57.5,25,20,0,37.5-7.5,52.5-20l112.5-112.5c10-10,25-10,35,0s10,25,0,35l-97.5,97.5,177.5,157.5c22.5,20,50,30,77.5,30,30,0,60-12.5,85-35l140-140c50-45,52.5-115,12.5-162.5ZM657.5,92.5c7.5,12.5-15,67.5-70,142.5l-65-72.5c90-67.5,130-72.5,135-70Z"/>
</svg>