<?xml version="1.0" encoding="UTF-8"?>
<svg id="Camada_1" xmlns="http://www.w3.org/2000/svg" version="1.1" viewBox="0 0 800 800">
  <!-- Generator: Adobe Illustrator 29.5.1, SVG Export Plug-In . SVG Version: 2.1.0 Build 141)  -->
  <defs>
    <style>
      .st0 {
        fill: #aebaa6;
      }
    </style>
  </defs>
  <path class="st0" d="M715.38,76.92H84.62c-12.31,0-23.08,10.77-23.08,23.08v46.15c0,12.31,10.77,23.08,23.08,23.08h630.77c12.31,0,23.08-10.77,23.08-23.08v-46.15c0-12.31-10.77-23.08-23.08-23.08Z"/>
  <path class="st0" d="M715.38,261.54H207.69c-12.31,0-23.08,10.77-23.08,23.08v46.15c0,12.31,10.77,23.08,23.08,23.08h507.69c12.31,0,23.08-10.77,23.08-23.08v-46.15c0-12.31-10.77-23.08-23.08-23.08Z"/>
  <path class="st0" d="M715.38,630.77H207.69c-12.31,0-23.08,10.77-23.08,23.08v46.15c0,12.31,10.77,23.08,23.08,23.08h507.69c12.31,0,23.08-10.77,23.08-23.08v-46.15c0-12.31-10.77-23.08-23.08-23.08Z"/>
  <path class="st0" d="M715.38,446.15H84.62c-12.31,0-23.08,10.77-23.08,23.08v46.15c0,12.31,10.77,23.08,23.08,23.08h630.77c12.31,0,23.08-10.77,23.08-23.08v-46.15c0-12.31-10.77-23.08-23.08-23.08Z"/>
</svg>