<?xml version="1.0" encoding="UTF-8"?>
<svg id="Layer_1" xmlns="http://www.w3.org/2000/svg" version="1.1" viewBox="0 0 800 800">
  <!-- Generator: Adobe Illustrator 29.5.1, SVG Export Plug-In . SVG Version: 2.1.0 Build 141)  -->
  <defs>
    <style>
      .st0 {
        fill: #f9ce8a;
      }
    </style>
  </defs>
  <path class="st0" d="M682.2,65.57L492.67,7.37c-87.03-26.5-179.26,21.51-207.47,108l-6.27,17.97h-112.27C74.66,133.44.11,208,0,300v333.33c.11,92,74.66,166.56,166.67,166.67h200c51.17-.18,99.39-23.97,130.67-64.47,7.61,1.1,15.28,1.68,22.97,1.73,73.51.06,138.29-48.28,159.17-118.77l113.87-346.63c25.3-87.56-24.1-179.26-111.13-206.3ZM366.67,733.33h-200c-55.23,0-100-44.77-100-100v-333.33c0-55.23,44.77-100,100-100h200c55.23,0,100,44.77,100,100v333.33c0,55.23-44.77,100-100,100ZM729.57,252.1l-113.73,346.67c-11.56,39.24-45.92,67.44-86.67,71.13,2.74-12,4.13-24.26,4.17-36.57v-333.33c-.11-92-74.66-166.56-166.67-166.67h-16.9c17.87-50.37,72.2-77.78,123.33-62.23l189.53,58.2c51.91,16.02,81.6,70.49,66.93,122.8ZM400,433.33c0,48.33-51.47,113.03-90.47,145.93-24.74,20.93-60.99,20.93-85.73,0-39-32.9-90.47-97.6-90.47-145.93,0-36.82,29.85-66.67,66.67-66.67s66.67,29.85,66.67,66.67c0-36.82,29.85-66.67,66.67-66.67s66.67,29.85,66.67,66.67Z"/>
</svg>