<?xml version="1.0" encoding="UTF-8"?>
<svg id="Camada_1" xmlns="http://www.w3.org/2000/svg" version="1.1" viewBox="0 0 800 800">
  <!-- Generator: Adobe Illustrator 30.0.0, SVG Export Plug-In . SVG Version: 2.1.1 Build 123)  -->
  <defs>
    <style>
      .st0 {
        fill: #f9ce8a;
      }
    </style>
  </defs>
  <path class="st0" d="M571.09,299.22v-166.72c0-11.25-5.94-21.56-15.47-27.34L416.56,21.72c-10.16-6.09-22.66-6.09-32.81,0l-139.22,83.44c-9.69,5.78-15.47,16.09-15.47,27.34v166.72c0,11.25,5.94,21.56,15.47,27.34l139.22,83.44c14.69,8.44,26.88,3.91,32.81,0l139.06-83.44c9.53-5.78,15.47-16.09,15.47-27.34Z"/>
  <path class="st0" d="M343.75,473.44l-139.06-83.44c-10.16-6.09-22.66-6.09-32.81,0l-139.22,83.44c-9.69,5.78-15.47,16.09-15.47,27.34v166.72c0,11.25,5.94,21.56,15.47,27.34l139.22,83.44c14.69,8.44,26.87,3.91,32.81,0l139.06-83.44c9.69-5.78,15.47-16.09,15.47-27.34v-166.72c0-11.25-5.78-21.56-15.47-27.34Z"/>
  <path class="st0" d="M767.34,473.28l-139.06-83.44c-10.16-6.09-22.66-6.09-32.81,0l-139.22,83.44c-9.69,5.78-15.47,16.09-15.47,27.34v166.72c0,11.25,5.94,21.56,15.47,27.34l139.06,83.44c14.69,8.44,26.88,3.91,32.81,0l139.06-83.44c9.69-5.78,15.47-16.09,15.47-27.34v-166.72c.16-11.25-5.78-21.56-15.31-27.34h0Z"/>
</svg>