<?xml version="1.0" encoding="UTF-8"?>
<svg id="Capa_1" xmlns="http://www.w3.org/2000/svg" version="1.1" viewBox="0 0 800 800">
  <!-- Generator: Adobe Illustrator 29.5.1, SVG Export Plug-In . SVG Version: 2.1.0 Build 141)  -->
  <defs>
    <style>
      .st0 {
        fill: #f9ce8a;
      }
    </style>
  </defs>
  <path class="st0" d="M797.01,126.55c-2.41-2.6-5.92-3.9-9.44-3.5-34.59,3.87-67.44,11.67-97.64,23.17-3.99,1.52-6.77,5.18-7.16,9.44-.62,6.75-1.44,32.03-1.44,32.03,0,0-2.98-18.02-3.79-21.75-.72-3.32-2.91-6.13-5.94-7.65-3.04-1.51-6.6-1.57-9.68-.14-28.86,13.35-48.46,27.75-65.34,41.31-1.6,1.29-2.82,3-3.52,4.94-10.3,28.67-10.18,47.86-8.52,64.33h0s-6-17.65-9.01-24.16c-2.32-5.02-3.3-8.05-7.45-9.71-4.16-1.66-8.9-.68-12.07,2.48-49.86,49.96-72.5,102.19-86.18,141.2-10.16,28.99-15.08,52.9-17.41,67.85h0c-25.81,29.04-39.98,49.62-40.57,50.48-1.81,2.64-2.49,5.83-1.9,8.99.59,3.15,2.37,5.88,4.98,7.67,2.01,1.39,4.37,2.12,6.8,2.12,3.96,0,7.67-1.95,9.9-5.2.13-.19,13.22-19.14,36.85-45.96,78.75-6.94,146.56-35.68,201.54-85.43,3.2-2.9,4.45-7.38,3.2-11.51-1.24-4.13-4.75-7.18-9.02-7.83-9.04-1.38-17.65-3.09-25.61-5.08,19.32-2.71,42.86-9.16,69.96-19.15,1.97-.73,3.7-2,4.98-3.66,60.75-78.71,81.38-169.62,86.26-195.61.65-3.49-.38-7.07-2.79-9.67Z"/>
  <path class="st0" d="M699.36,395.47c-2.23,3.58-4.96,6.88-8.16,9.78-10.33,9.35-21.08,18.02-32.21,26.03l56.9,197.04H56.75l82.2-284.64h303.76c6-14.88,13.54-31.37,23.29-48.72H120.62c-10.85,0-20.39,7.18-23.4,17.6L.96,645.91c-2.12,7.35-.67,15.28,3.94,21.4,4.6,6.12,11.81,9.72,19.47,9.72h723.96c13.45,0,24.36-10.91,24.36-24.36,0-2.84-.49-5.56-1.38-8.1l-71.94-249.1Z"/>
</svg>