<?xml version="1.0" encoding="UTF-8"?>
<svg id="_x32_" xmlns="http://www.w3.org/2000/svg" version="1.1" viewBox="0 0 800 800">
  <!-- Generator: Adobe Illustrator 29.5.1, SVG Export Plug-In . SVG Version: 2.1.0 Build 141)  -->
  <defs>
    <style>
      .st0 {
        fill: #f9ce8a;
      }
    </style>
  </defs>
  <path class="st0" d="M53.45,237.72v325.13c0,26.21,13.75,50.49,36.23,63.98l271.95,163.11c9.11,5.46,19.07,8.79,29.25,10.05v-392.53L59.39,208.63c-3.85,9.06-5.93,18.93-5.93,29.09ZM308.93,422.87c18.84,10.27,34.11,33.86,34.11,52.7s-15.27,25.78-34.11,15.52c-18.84-10.27-34.1-33.86-34.1-52.7s15.26-25.79,34.1-15.52ZM213.73,466.18c18.83,10.27,34.1,33.86,34.1,52.7s-15.27,25.78-34.1,15.52c-18.85-10.27-34.12-33.86-34.12-52.7s15.27-25.78,34.12-15.52ZM118.5,509.5c18.84,10.27,34.11,33.86,34.11,52.7s-15.27,25.78-34.11,15.52c-18.83-10.27-34.1-33.86-34.1-52.7,0-18.84,15.27-25.78,34.1-15.52Z"/>
  <path class="st0" d="M740.61,208.63l-325.2,195.07c-3.9,2.33-6.29,6.55-6.29,11.09v385.21c10.17-1.26,20.15-4.59,29.25-10.05l271.95-163.11c22.48-13.49,36.23-37.77,36.23-63.98V237.72c0-10.16-2.08-20.03-5.93-29.09ZM483.66,681.5c-18.84,10.27-34.11,3.32-34.11-15.52s15.27-42.42,34.11-52.69c18.84-10.27,34.11-3.32,34.11,15.51,0,18.84-15.27,42.43-34.11,52.7ZM483.66,491.08c-18.84,10.27-34.11,3.32-34.11-15.52s15.27-42.43,34.11-52.7c18.84-10.27,34.11-3.32,34.11,15.52s-15.27,42.43-34.11,52.7ZM674.08,577.71c-18.84,10.27-34.1,3.32-34.1-15.52s15.26-42.43,34.1-52.7c18.84-10.27,34.12-3.32,34.12,15.52s-15.28,42.43-34.12,52.7ZM674.08,387.3c-18.84,10.27-34.1,3.31-34.1-15.52s15.26-42.43,34.1-52.7,34.12-3.32,34.12,15.52-15.28,42.42-34.12,52.7Z"/>
  <path class="st0" d="M710.32,173.76L438.37,10.63C426.55,3.54,413.29,0,400,0s-26.55,3.54-38.37,10.62L89.68,173.76c-8.36,5-15.49,11.52-21.18,19.05l324.85,194.85c4.1,2.46,9.21,2.46,13.3,0l324.85-194.85c-5.69-7.53-12.82-14.05-21.18-19.05ZM447.42,218.83c-27.41,19.05-71.15,18.54-97.71-1.12-26.55-19.65-25.86-51.04,1.55-70.09,27.41-19.04,71.14-18.56,97.69,1.12,26.56,19.65,25.87,51.04-1.53,70.09Z"/>
</svg>