<?xml version="1.0" encoding="UTF-8"?>
<svg id="Capa_1" xmlns="http://www.w3.org/2000/svg" version="1.1" viewBox="0 0 800 800">
  <!-- Generator: Adobe Illustrator 29.5.1, SVG Export Plug-In . SVG Version: 2.1.0 Build 141)  -->
  <defs>
    <style>
      .st0 {
        fill: #f9ce8a;
      }
    </style>
  </defs>
  <path class="st0" d="M795.11,589.14L489.41,181.54c-4.62-6.15-11.86-9.77-19.55-9.77s-14.93,3.62-19.55,9.77l-126.74,168.99-50.32-67.1c-4.61-6.15-11.86-9.77-19.55-9.77s-14.93,3.62-19.55,9.77L4.89,589.14c-5.55,7.4-6.44,17.31-2.31,25.59,4.14,8.27,12.6,13.5,21.85,13.5h751.13c9.26,0,17.72-5.23,21.85-13.5,4.14-8.28,3.25-18.19-2.31-25.59ZM73.3,579.37l180.41-240.55,50.32,67.1c4.61,6.15,11.86,9.77,19.55,9.77s14.93-3.62,19.55-9.77l126.74-168.99,256.83,342.44H73.3Z"/>
</svg>