<?xml version="1.0" encoding="UTF-8"?>
<svg id="Icons" xmlns="http://www.w3.org/2000/svg" version="1.1" viewBox="0 0 800 800">
  <!-- Generator: Adobe Illustrator 29.5.1, SVG Export Plug-In . SVG Version: 2.1.0 Build 141)  -->
  <defs>
    <style>
      .st0 {
        fill: #f9ce8a;
      }
    </style>
  </defs>
  <path class="st0" d="M550,240c-25-10-50-22.5-75-35v220c25,0,50,2.5,75,0v-185Z"/>
  <path class="st0" d="M692.5,265c-5-5-12.5-7.5-20-7.5-25,2.5-50,0-72.5-5v162.5c27.5-7.5,55-17.5,87.5-35,7.5-5,12.5-12.5,12.5-22.5v-75c0-5-2.5-12.5-7.5-17.5Z"/>
  <path class="st0" d="M300,140c-17.5-2.5-32.5-2.5-52.5,0-12.5,2.5-20,10-22.5,22.5l-75,60V75c0-15-10-25-25-25s-25,10-25,25v650c0,15,10,25,25,25s25-10,25-25v-347.5l75,60v2.5c0,10,5,17.5,12.5,22.5,5,2.5,7.5,2.5,12.5,2.5s7.5,0,12.5-2.5c12.5-7.5,25-12.5,37.5-17.5V140ZM225,372.5l-75-60v-25l75-60v145Z"/>
  <path class="st0" d="M425,177.5c-22.5-10-47.5-20-75-27.5v280c25-5,50-7.5,75-5v-247.5Z"/>
</svg>