<?xml version="1.0" encoding="UTF-8"?>
<svg id="Icons" xmlns="http://www.w3.org/2000/svg" version="1.1" viewBox="0 0 800 800">
  <!-- Generator: Adobe Illustrator 29.5.1, SVG Export Plug-In . SVG Version: 2.1.0 Build 141)  -->
  <defs>
    <style>
      .st0 {
        fill: #f9ce8a;
      }
    </style>
  </defs>
  <path class="st0" d="M115,475h527.5c7.5,0,15-2.5,17.5-7.5,42.5-45,65-105,65-167.5,0-137.5-112.5-250-250-250-110,0-205,70-237.5,175-90,0-162.5,72.5-162.5,162.5,0,25,5,50,17.5,75,5,7.5,12.5,12.5,22.5,12.5Z"/>
  <path class="st0" d="M650,525H100c-15,0-25,10-25,25s10,25,25,25h550c27.5,0,50,22.5,50,50s-22.5,50-50,50-50-22.5-50-50c0-15-10-25-25-25s-25,10-25,25c0,55,45,100,100,100s100-45,100-100-45-100-100-100Z"/>
  <path class="st0" d="M450,625h-175c-15,0-25,10-25,25s10,25,25,25h175c15,0,25,10,25,25s-10,25-25,25-25-10-25-25-10-25-25-25-25,10-25,25c0,42.5,32.5,75,75,75s75-32.5,75-75-32.5-75-75-75Z"/>
  <path class="st0" d="M222.5,640c0-2.5-2.5-2.5-2.5-5s-2.5-2.5-2.5-5c-7.5-5-17.5-7.5-27.5-2.5-2.5,0-5,2.5-7.5,5,0,0-2.5,2.5-2.5,5,0,0-2.5,2.5-2.5,5s0,2.5-2.5,5v5c0,2.5,0,7.5,2.5,10s2.5,5,5,7.5c5,2.5,10,5,17.5,5,2.5,0,7.5,0,10-2.5s5-2.5,7.5-5,5-5,5-7.5c2.5-2.5,2.5-7.5,2.5-10v-5c0-2.5-2.5-2.5-2.5-5Z"/>
</svg>